# xmcd CD database file
#
# Track frame offsets:
#	150
#	19910
#	36713
#	49598
#	68663
#	87671
#	92789
#	120154
#	135829
#	150004
#	181579
#	204229
#	255829
#	275712
#	299474
#
# Disc length: 4272 seconds
#
# Revision: 1
# Processed by: cddbd v1.5.2PL0 Copyright (c) Steve Scherf et al.
# Submitted via: CDex 1.51
#
DISCID=c010ae0f
DTITLE=Muzio Clementi - Cinq sonates ''viennoises''  (Pietro Spada, piano)
DYEAR=1900
DGENRE=Classique
TTITLE0=Sonate N°3, Op.07 - I. Allegro espressivo
TTITLE1=Sonate N°3, Op.07 - II. Cantabile
TTITLE2=Sonate N°3, Op.07 - III. Allegro agitato
TTITLE3=Sonate N°1, Op.08 - I. Allegro
TTITLE4=Sonate N°1, Op.08 - II. Andante cantabile
TTITLE5=Sonate N°1, Op.08 - III.Presto 
TTITLE6=Sonate N°3, Op.09 - I. Allegro assai
TTITLE7=Sonate N°3, Op.09 - II. Larghetto
TTITLE8=Sonate N°3, Op.09 - III. Prestissimo
TTITLE9=Sonate N°1, Op.12 - I. Presto
TTITLE10=Sonate N°1, Op.12 - II. Larghetto con espressione
TTITLE11=Sonate N°1, Op.12 - III. Undor with variations - Allegretto
TTITLE12=Sonate N°6, Op.13 - I. Allegro agitato
TTITLE13=Sonate N°6, Op.13 - II. Largo e sostenuto
TTITLE14=Sonate N°6, Op.13 - III. Presto
EXTD=
EXTT0=
EXTT1=
EXTT2=
EXTT3=
EXTT4=
EXTT5=
EXTT6=
EXTT7=
EXTT8=
EXTT9=
EXTT10=
EXTT11=
EXTT12=
EXTT13=
EXTT14=
PLAYORDER=
